<svg id="Capa_1" enable-background="new 0 0 512 512" height="512" viewBox="0 0 512 512" width="512" xmlns="http://www.w3.org/2000/svg"><g><g><path d="m271 400v64c0 8.28-6.72 15-15 15h-96c-8.28 0-15-6.72-15-15v-64c0-8.28 6.72-15 15-15h96c8.28 0 15 6.72 15 15z" fill="#fbbd00"/></g><g><path d="m463 400v64c0 8.28-6.72 15-15 15h-128c-8.28 0-15-6.72-15-15v-64c0-8.28 6.72-15 15-15h128c8.28 0 15 6.72 15 15z" fill="#fbbd00"/></g><g><path d="m512 110v130l-256 107.15-176-107.15v-175h387c24.81 0 45 20.19 45 45z" fill="#00eecf"/></g><g><path d="m512 240v130c0 24.81-20.19 45-45 45h-387v-175z" fill="#00d3b3"/></g><g><path d="m144.02 351c-8.284 0-15.005-6.716-15.005-15s6.71-15 14.995-15h.01c8.284 0 15 6.716 15 15s-6.716 15-15 15z" fill="#00ab94"/></g><g><path d="m191 240-31.98 7.5-30.02-7.5c0-8.28 6.72-15 15-15h32c8.28 0 15 6.72 15 15z" fill="#00d3b3"/></g><g><path d="m191 240c0 8.28-6.72 15-15 15h-32c-8.28 0-15-6.72-15-15z" fill="#00ab94"/></g><g><path d="m144.02 159c-8.284 0-15.005-6.716-15.005-15s6.71-15 14.995-15h.01c8.284 0 15 6.716 15 15s-6.716 15-15 15z" fill="#00d3b3"/></g><g><path d="m448 240-105.22 43.3-102.78-43.3c0-57.44 46.56-104 104-104s104 46.56 104 104z" fill="#e5f2fa"/></g><g><path d="m448 240c0 57.44-46.56 104-104 104s-104-46.56-104-104z" fill="#cfe7ff"/></g><g><path d="m344 121c-65.62 0-119 53.38-119 119l19.91 15 10.09-15c0-15.76 4.12-30.57 11.34-43.43l38.19 36.93c-.34 2.12-.53 4.29-.53 6.5l44.57 25.68 35.43-25.68c0-1.3-.07-2.59-.19-3.86l47.47-13.58c1.13 5.64 1.72 11.47 1.72 17.44l15 17 15-17c0-65.62-53.38-119-119-119zm-14.1 81.56c-3.28 1.24-6.34 2.89-9.14 4.9l-35.47-34.29c15.4-13.54 35.5-21.86 57.49-22.15zm39.46 6.51c-2.66-2.19-5.62-4.03-8.8-5.48l11.98-47.9c20.18 6.85 37.13 20.76 47.9 38.77z" fill="#00d3b3"/></g><g><path d="m433 240c0 15.76-4.12 30.57-11.34 43.43l-38.19-36.93c.34-2.12.53-4.29.53-6.5h-80c0 1.3.07 2.59.19 3.86l-47.47 13.58c-1.13-5.64-1.72-11.47-1.72-17.44h-30c0 65.62 53.38 119 119 119s119-53.38 119-119zm-117.54 84.31c-20.18-6.85-37.13-20.76-47.9-38.77l51.08-14.61c2.66 2.19 5.62 4.03 8.8 5.48zm29.76 4.67 12.88-51.54c3.28-1.24 6.34-2.89 9.14-4.9l35.47 34.29c-15.4 13.54-35.5 21.86-57.49 22.15z" fill="#00ab94"/></g><g><path d="m80 347.149v30.638h-32.681c-8.456 0-15.319-6.863-15.319-15.319s6.863-15.319 15.319-15.319z" fill="#6f7fe9"/></g><g><path d="m80 169v71l-40 26.7-40-26.7v-56c0-8.28 6.72-15 15-15z" fill="#949ff1"/></g><g><path d="m80 240v71h-65c-8.28 0-15-6.72-15-15v-56z" fill="#6f7fe9"/></g><g><path d="m80 110.213v30.638h-32.681c-8.456 0-15.319-6.863-15.319-15.319s6.863-15.319 15.319-15.319z" fill="#949ff1"/></g><g><path d="m95 40v200l-15 21.09-15-21.09v-185h-50c-8.28 0-15-6.72-15-15s6.72-15 15-15h65c8.28 0 15 6.72 15 15z" fill="#e5f2fa"/></g><g><path d="m95 240v232c0 8.28-6.72 15-15 15s-15-6.72-15-15v-232z" fill="#cfe7ff"/></g></g></svg>