<svg id="Capa_1" enable-background="new 0 0 512 512" height="512" viewBox="0 0 512 512" width="512" xmlns="http://www.w3.org/2000/svg"><g><g><path d="m151.681 0h315.319c24.813 0 45 20.187 45 45v15l-302.745 7.17z" fill="#4793ff"/></g><path d="m467 0h-211v66.063l256-6.063v-15c0-24.813-20.187-45-45-45z" fill="#525cdd"/><path d="m0 45v422c0 24.813 20.187 45 45 45h422c24.813 0 45-20.187 45-45v-407h-300.128l-21.026-37.161c-8.092-14.301-22.734-22.839-39.165-22.839h-106.681c-24.813 0-45 20.187-45 45z" fill="#f0f5fa"/><path d="m256 60v452h211c24.813 0 45-20.187 45-45v-407z" fill="#d7e3f0"/><path d="m423.876 246.032c-1.605-6.766-7.648-11.537-14.594-11.537-.119 0-.237.001-.356.001-13.199 0-25.433-7.007-31.971-18.33-6.575-11.39-6.488-25.587.226-37.051 3.527-6.022 2.435-13.682-2.636-18.478-19.579-18.52-43.521-32.357-69.235-40.014-6.696-1.994-13.874.896-17.323 6.966-6.568 11.561-18.825 18.743-31.986 18.743s-25.418-7.182-31.986-18.743c-3.45-6.071-10.631-8.958-17.322-6.966-25.7 7.652-49.64 21.492-69.231 40.022-5.069 4.795-6.163 12.453-2.638 18.476 6.711 11.464 6.797 25.659.223 37.045-6.58 11.397-18.918 18.398-32.226 18.33-6.971-.093-13.084 4.736-14.697 11.536-3.094 13.04-4.663 26.486-4.663 39.968 0 13.476 1.569 26.922 4.665 39.967 1.605 6.766 7.648 11.537 14.594 11.537.121 0 .236-.001.356-.001 13.199 0 25.433 7.007 31.971 18.331 6.575 11.39 6.488 25.587-.226 37.051-3.527 6.023-2.435 13.683 2.637 18.479 19.582 18.521 43.523 32.357 69.235 40.013 1.418.422 2.858.625 4.28.625 3.363 0 6.624-1.136 9.252-3.193 1.504-1.178 22.615-41.34 35.777-41.34s34.272 40.163 35.776 41.34c3.739 2.927 8.76 3.989 13.532 2.567 25.698-7.652 49.638-21.491 69.23-40.021 5.07-4.795 6.164-12.454 2.639-18.476-6.712-11.464-6.797-25.659-.223-37.045 6.538-11.325 18.77-18.331 31.97-18.331.12 0 .242.001.359.001 6.944 0 12.987-4.771 14.594-11.535 3.094-13.035 4.663-26.482 4.663-39.969-.001-13.476-1.57-26.923-4.666-39.968z" fill="#00429d"/><path d="m423.876 246.032c-1.605-6.766-7.648-11.537-14.594-11.537-.119 0-.237.001-.356.001-13.199 0-25.433-7.007-31.971-18.33-6.575-11.39-6.488-25.587.226-37.051 3.527-6.022 2.435-13.682-2.636-18.478-19.579-18.52-43.521-32.357-69.235-40.014-6.696-1.994-13.874.896-17.323 6.966-6.568 11.561-18.825 18.743-31.986 18.743v261.136c13.161 0 34.272 40.163 35.776 41.34 3.739 2.927 8.76 3.989 13.532 2.567 25.698-7.652 49.638-21.491 69.23-40.021 5.07-4.795 6.164-12.454 2.639-18.476-6.712-11.464-6.797-25.659-.223-37.045 6.538-11.325 18.77-18.331 31.97-18.331.12 0 .242.001.359.001 6.944 0 12.987-4.771 14.594-11.535 3.094-13.035 4.663-26.482 4.663-39.969 0-13.475-1.569-26.922-4.665-39.967z" fill="#00347b"/><g clip-rule="evenodd" fill-rule="evenodd"><path d="m327.553 273.958c0-22.553-10.435-42.668-26.74-55.783-3.635-2.923-9.037-.357-9.037 4.307v37.406c0 2.935-1.468 5.675-3.911 7.301l-27.006 17.975c-2.943 1.959-6.775 1.959-9.719 0l-27.006-17.975c-2.443-1.626-3.911-4.366-3.911-7.301v-37.406c0-4.664-5.402-7.23-9.037-4.307-16.305 13.114-26.74 33.229-26.74 55.783 0 26.485 14.39 49.606 35.776 61.978v112.871c1.504-1.177 2.801-2.657 3.791-4.398 6.568-11.561 18.825-18.742 31.986-18.742s25.418 7.182 31.986 18.742c.99 1.741 2.286 3.22 3.791 4.398v-112.871c21.388-12.372 35.777-35.494 35.777-61.978z" fill="#d7e3f0"/><path d="m300.813 218.175c-3.635-2.923-9.037-.357-9.037 4.307v37.406c0 2.935-1.468 5.675-3.911 7.301l-27.006 17.975c-1.472.98-3.166 1.469-4.859 1.469v139.034c13.161 0 25.418 7.182 31.986 18.742.99 1.741 2.286 3.22 3.791 4.398v-112.871c21.387-12.372 35.776-35.494 35.776-61.978 0-22.554-10.435-42.669-26.74-55.783z" fill="#a0b6db"/></g></g></svg>