<svg id="Capa_1" enable-background="new 0 0 512 512" height="512" viewBox="0 0 512 512" width="512" xmlns="http://www.w3.org/2000/svg"><g><path d="m397.16 341.07c-3.35 12.81-8.4 24.93-14.9 36.11l33.7 43.33-43.44 43.45-43.33-33.7c-11.18 6.49-23.3 11.55-36.12 14.9l-6.35 51.84h-61.44l-6.35-51.84c-12.82-3.35-24.94-8.41-36.12-14.9l-43.33 33.7-43.44-43.45 33.7-43.33c-6.5-11.18-11.55-23.3-14.9-36.11l-50.84-6.35v-61.44l50.84-6.35c3.23-12.36 6.99-24.08 13.16-34.93h256c6.17 10.85 9.93 22.57 13.16 34.93l50.84 6.35v61.44z" fill="#edf3ff"/><path d="m397.16 341.07c-3.35 12.81-8.4 24.93-14.9 36.11l33.7 43.33-43.44 43.45-43.33-33.7c-11.18 6.49-23.3 11.55-36.12 14.9l-6.35 51.84h-30.72v-265h128c6.17 10.85 9.93 22.57 13.16 34.93l50.84 6.35v61.44z" fill="#d8e5fb"/><path d="m449.86 258.4-40.94-5.12c-2.78-9.22-6.45-19.14-11.88-28.69-2.67-4.69-7.65-7.59-13.04-7.59h-256c-5.39 0-10.37 2.9-13.04 7.59-5.43 9.55-9.1 19.47-11.88 28.69l-40.94 5.12c-7.51.93-13.14 7.31-13.14 14.88v61.44c0 7.57 5.63 13.95 13.14 14.88l41.11 5.14c2.39 7.17 5.27 14.17 8.65 20.94l-27.7 35.62c-4.64 5.97-4.12 14.47 1.23 19.82l43.44 43.45c5.35 5.35 13.85 5.87 19.82 1.23l35.62-27.7c6.77 3.37 13.77 6.26 20.93 8.64l5.15 42.08c.92 7.53 7.31 13.18 14.89 13.18h61.44c7.58 0 13.97-5.65 14.89-13.18l5.15-42.08c7.16-2.38 14.16-5.27 20.93-8.64l35.62 27.7c5.97 4.65 14.47 4.12 19.82-1.23l43.44-43.45c5.35-5.35 5.87-13.85 1.23-19.82l-27.7-35.62c3.37-6.77 6.26-13.77 8.65-20.94l41.11-5.14c7.51-.93 13.14-7.31 13.14-14.88v-61.44c0-7.57-5.63-13.95-13.14-14.88zm-16.86 63.08-37.7 4.71c-6.09.76-11.1 5.15-12.65 11.08-2.97 11.33-7.46 22.22-13.36 32.37-3.07 5.29-2.63 11.92 1.13 16.75l25.57 32.88-24.71 24.72-32.88-25.57c-4.83-3.75-11.45-4.2-16.74-1.13-10.18 5.91-21.08 10.4-32.38 13.36-5.95 1.55-10.35 6.58-11.1 12.69l-4.73 38.66h-34.9l-4.73-38.66c-.75-6.11-5.15-11.14-11.1-12.69-11.3-2.96-22.2-7.45-32.38-13.36-5.29-3.07-11.91-2.63-16.74 1.13l-32.88 25.57-24.71-24.72 25.57-32.88c3.76-4.83 4.2-11.46 1.13-16.75-5.9-10.15-10.4-21.04-13.36-32.37-1.55-5.93-6.56-10.32-12.65-11.08l-37.7-4.71v-34.96l37.7-4.71c6.09-.76 11.1-5.15 12.65-11.09 1.94-7.43 4.36-15.76 7.89-23.72h237.52c3.53 7.96 5.95 16.29 7.89 23.72 1.55 5.94 6.56 10.33 12.65 11.09l37.7 4.71z" fill="#d8e5fb"/><path d="m463 273.28v61.44c0 7.57-5.63 13.95-13.14 14.88l-41.11 5.14c-2.39 7.17-5.28 14.17-8.65 20.94l27.7 35.62c4.64 5.97 4.12 14.47-1.23 19.82l-43.44 43.45c-5.35 5.35-13.85 5.88-19.82 1.23l-35.62-27.7c-6.77 3.37-13.77 6.26-20.93 8.64l-5.15 42.08c-.92 7.53-7.31 13.18-14.89 13.18h-30.72v-30h17.45l4.73-38.66c.75-6.11 5.15-11.14 11.1-12.69 11.3-2.96 22.2-7.45 32.38-13.36 5.29-3.07 11.91-2.62 16.74 1.13l32.88 25.57 24.71-24.72-25.57-32.88c-3.76-4.83-4.2-11.46-1.13-16.75 5.9-10.15 10.39-21.04 13.36-32.37 1.55-5.93 6.56-10.32 12.65-11.08l37.7-4.71v-34.96l-37.7-4.71c-6.09-.76-11.1-5.15-12.65-11.09-1.94-7.43-4.36-15.76-7.89-23.72h-118.76v-30h128c5.39 0 10.37 2.9 13.04 7.59 5.43 9.55 9.1 19.47 11.88 28.69l40.94 5.12c7.51.93 13.14 7.31 13.14 14.88z" fill="#bdd8fc"/><path d="m396.13 223.18-125.13-172.05c-18.041 0-11.113.003-30-.01-181.26 249.246-74.205 102.158-124.54 171.3-8.17 9.835-.968 24.965 11.97 24.58 35.64.23 64.57 29.3 64.57 65 0 8.28 6.72 15 15 15h96c8.28 0 15-6.72 15-15 0-35.84 29.16-65 65-65 12.208 0 19.359-13.891 12.13-23.82z" fill="#ffe278"/><path d="m384 247c-35.84 0-65 29.16-65 65 0 8.28-6.72 15-15 15h-48v-275.87h15l125.13 172.05c7.186 9.87.153 23.82-12.13 23.82z" fill="#ffc178"/><path d="m288 208c0 17.67-14.33 32-32 32s-32-14.33-32-32c0-12.25 6.89-22.89 17-28.27v-128.61c.95-1.3 1.91-2.62 2.87-3.94 5.982-8.23 18.274-8.236 24.26 0l2.87 3.95v128.6c10.11 5.38 17 16.02 17 28.27z" fill="#edf3ff"/><path d="m288 208c0 17.67-14.33 32-32 32v-199c4.8 0 9.31 2.3 12.13 6.18l2.87 3.95v128.6c10.11 5.38 17 16.02 17 28.27z" fill="#d8e5fb"/><path d="m193 312v63c0 8.28 6.72 15 15 15h96c8.28 0 15-6.72 15-15v-63z" fill="#00b4bc"/><path d="m319 312v63c0 8.28-6.72 15-15 15h-48v-78z" fill="#0a617d"/><path d="m224 63h-145c-8.284 0-15-6.716-15-15s6.716-15 15-15h145c8.284 0 15 6.716 15 15s-6.716 15-15 15z" fill="#00b4bc"/><path d="m433 63h-145c-8.284 0-15-6.716-15-15s6.716-15 15-15h145c8.284 0 15 6.716 15 15s-6.716 15-15 15z" fill="#0a617d"/><path d="m224 15h64v65h-64z" fill="#edf3ff"/><path d="m256 15h32v65h-32z" fill="#d8e5fb"/><path d="m288 0h-64c-8.28 0-15 6.72-15 15v65c0 8.28 6.72 15 15 15h64c8.28 0 15-6.72 15-15v-65c0-8.28-6.72-15-15-15zm-15 65h-34v-35h34z" fill="#ff8493"/><path d="m303 15v65c0 8.28-6.72 15-15 15h-32v-30h17v-35h-17v-30h32c8.28 0 15 6.72 15 15z" fill="#ff3d7d"/><path d="m15 15h64v65h-64z" fill="#edf3ff"/><path d="m79 95h-64c-8.284 0-15-6.716-15-15v-65c0-8.284 6.716-15 15-15h64c8.284 0 15 6.716 15 15v65c0 8.284-6.716 15-15 15zm-49-30h34v-35h-34z" fill="#ff8493"/><path d="m433 15h64v65h-64z" fill="#d8e5fb"/><path d="m497 95h-64c-8.284 0-15-6.716-15-15v-65c0-8.284 6.716-15 15-15h64c8.284 0 15 6.716 15 15v65c0 8.284-6.716 15-15 15zm-49-30h34v-35h-34z" fill="#ff3d7d"/></g></svg>