<?xml version="1.0" encoding="iso-8859-1"?>
<!-- Generator: Adobe Illustrator 19.0.0, SVG Export Plug-In . SVG Version: 6.00 Build 0)  -->
<svg version="1.1" id="Capa_1" xmlns="http://www.w3.org/2000/svg" xmlns:xlink="http://www.w3.org/1999/xlink" x="0px" y="0px"
	 viewBox="0 0 512 512" style="enable-background:new 0 0 512 512;" xml:space="preserve">
<path style="fill:#D9FFFE;" d="M492.367,113.957v331.891c0,36.476-29.677,66.152-66.162,66.152h-258.2
	c-36.486,0-66.162-29.677-66.162-66.152V66.152C101.843,29.677,131.52,0,168.005,0H383.58c4.929,0,9.699,2.05,13.088,5.629
	l90.769,95.949C490.617,104.938,492.367,109.337,492.367,113.957z"/>
<path style="fill:#9BFCFF;" d="M492.367,113.957v331.891c0,36.476-29.677,66.152-66.162,66.152H297.1V0h86.48
	c4.929,0,9.699,2.05,13.088,5.629l90.769,95.949C490.617,104.938,492.367,109.337,492.367,113.957z"/>
<path style="fill:#4B5BE4;" d="M281.591,70.242H45.788c-14.422,0-26.155,11.733-26.155,26.155v129.409
	c0,14.422,11.733,26.155,26.155,26.155h235.804c14.421,0,26.155-11.733,26.155-26.155V96.397
	C307.746,81.974,296.013,70.242,281.591,70.242z"/>
<g>
	<path style="fill:#FFFFFF;" d="M66.31,198.504v-73.71c0-1.467,0.618-2.742,1.854-3.825c1.235-1.081,2.858-1.623,4.867-1.623h23.991
		c8.267,0,14.893,2.144,19.877,6.432c4.983,4.288,7.475,11.03,7.475,20.225v0.579c0,9.196-2.608,15.976-7.823,20.341
		c-5.215,4.366-12.112,6.548-20.688,6.548H84.39v25.034c0,1.779-0.889,3.15-2.666,4.115c-1.778,0.967-3.903,1.449-6.374,1.449
		c-2.474,0-4.598-0.482-6.374-1.449C67.197,201.653,66.31,200.283,66.31,198.504z M84.39,159.562h11.474
		c6.954,0,10.431-3.863,10.431-11.59v-1.275c0-7.725-3.477-11.59-10.431-11.59H84.39V159.562z"/>
	<path style="fill:#FFFFFF;" d="M132.255,198.504v-73.71c0-1.777,0.887-3.13,2.666-4.057c1.776-0.927,3.901-1.391,6.374-1.391
		c2.472,0,4.596,0.463,6.374,1.391c1.777,0.927,2.666,2.28,2.666,4.057v28.395h23.063v-28.395c0-1.777,0.887-3.13,2.666-4.057
		c1.777-0.927,3.901-1.391,6.374-1.391c2.472,0,4.596,0.463,6.374,1.391c1.777,0.927,2.666,2.28,2.666,4.057v73.71
		c0,1.779-0.889,3.15-2.666,4.115c-1.778,0.967-3.903,1.449-6.374,1.449c-2.474,0-4.597-0.482-6.374-1.449
		c-1.779-0.965-2.666-2.336-2.666-4.115v-31.408h-23.063v31.408c0,1.779-0.889,3.15-2.666,4.115
		c-1.778,0.967-3.903,1.449-6.374,1.449c-2.474,0-4.598-0.482-6.374-1.449C133.141,201.653,132.255,200.283,132.255,198.504z"/>
	<path style="fill:#FFFFFF;" d="M203.993,198.504v-73.71c0-1.467,0.618-2.742,1.854-3.825c1.235-1.081,2.858-1.623,4.867-1.623
		h23.991c8.267,0,14.893,2.144,19.877,6.432c4.983,4.288,7.475,11.03,7.475,20.225v0.579c0,9.196-2.608,15.976-7.823,20.341
		c-5.215,4.366-12.112,6.548-20.688,6.548h-11.474v25.034c0,1.779-0.889,3.15-2.666,4.115c-1.778,0.967-3.903,1.449-6.374,1.449
		c-2.474,0-4.598-0.482-6.374-1.449C204.881,201.653,203.993,200.283,203.993,198.504z M222.073,159.562h11.474
		c6.954,0,10.431-3.863,10.431-11.59v-1.275c0-7.725-3.477-11.59-10.431-11.59h-11.474V159.562z"/>
</g>
<g>
	<path style="fill:#00E7F0;" d="M492.367,113.957v14.338h-84.2c-21.327,0-38.685-17.358-38.685-38.685V0h14.098
		c4.929,0,9.699,2.05,13.088,5.629l90.769,95.949C490.617,104.938,492.367,109.337,492.367,113.957z"/>
	<path style="fill:#00E7F0;" d="M197.017,375.956c0-3.668,1.579-6.519,4.737-8.559l38.818-25.216
		c0.611-0.509,1.579-0.764,2.904-0.764c2.446,0,4.788,1.123,7.03,3.363c2.24,2.242,3.362,4.84,3.362,7.794
		c0,2.854-0.917,4.84-2.751,5.96l-26.897,17.422l26.898,17.422c1.834,1.123,2.751,3.109,2.751,5.96c0,2.957-1.123,5.554-3.362,7.794
		c-2.243,2.243-4.584,3.363-7.03,3.363c-1.325,0-2.292-0.253-2.904-0.764l-38.818-25.217
		C198.596,382.476,197.017,379.622,197.017,375.956z"/>
	<path style="fill:#00E7F0;" d="M261.966,417.219c0-0.917,0.253-1.884,0.765-2.904l53.642-110.188
		c1.223-2.546,3.362-3.821,6.418-3.821c2.24,0,4.302,0.764,6.189,2.292c1.884,1.529,2.828,3.465,2.828,5.807
		c0,1.123-0.205,2.09-0.611,2.904l-53.795,110.188c-1.223,2.545-3.516,3.821-6.877,3.821c-2.446,0-4.484-0.84-6.113-2.522
		C262.781,421.116,261.966,419.256,261.966,417.219z"/>
	<path style="fill:#00E7F0;" d="M339.908,399.338c0-2.852,0.917-4.837,2.751-5.96l26.898-17.422l-26.898-17.422
		c-1.834-1.12-2.751-3.107-2.751-5.96c0-2.954,1.12-5.552,3.363-7.794c2.24-2.24,4.584-3.363,7.03-3.363
		c1.323,0,2.292,0.255,2.904,0.764l38.818,25.216c3.157,2.04,4.737,4.89,4.737,8.559c0,3.668-1.581,6.521-4.737,8.558
		l-38.818,25.217c-0.611,0.511-1.581,0.764-2.904,0.764c-2.446,0-4.79-1.12-7.03-3.363
		C341.028,404.892,339.908,402.294,339.908,399.338z"/>
</g>
<g>
</g>
<g>
</g>
<g>
</g>
<g>
</g>
<g>
</g>
<g>
</g>
<g>
</g>
<g>
</g>
<g>
</g>
<g>
</g>
<g>
</g>
<g>
</g>
<g>
</g>
<g>
</g>
<g>
</g>
</svg>
