<svg id="Capa_1" enable-background="new 0 0 512 512" height="512" viewBox="0 0 512 512" width="512" xmlns="http://www.w3.org/2000/svg"><g><g><path d="m281.49 244.04v222.45l-25.25 45.51h-25.5l-15-19.564-15 19.564h-40c-8.28 0-15-6.72-15-15v-99.34c0-27.34-9.7-53.92-27.32-74.83l-27.51-32.64c-26.07-30.95-40.43-70.28-40.43-110.75v-94.15c0-47.03 38.26-85.29 85.29-85.29 3.99 0 7.81 1.59 10.62 4.41 2.82 2.82 4.39 6.65 4.38 10.63l-.36 119.53c-.05 17.74 6.82 34.42 19.34 46.98 12.52 12.55 29.18 19.47 46.91 19.47h39.58z" fill="#fe9"/></g><path d="m461.52 85.29v94.15c0 40.47-14.36 79.8-40.43 110.75l-27.51 32.64c-17.62 20.91-27.32 47.49-27.32 74.83v99.34c0 8.28-6.72 15-15 15h-39.59l-15-18.778-15 18.778h-25.43v-310.98h39.1c17.73 0 34.39-6.92 46.91-19.47 12.52-12.56 19.39-29.24 19.34-46.98l-.36-119.53c-.01-3.98 1.56-7.81 4.38-10.63 2.81-2.82 6.63-4.41 10.62-4.41 47.03 0 85.29 38.26 85.29 85.29z" fill="#ffd480"/><path d="m262.112 18.309-5.872-18.273c-2.74-.1-5.5.56-7.92 1.96l-61.83 35.649c-2.31 1.33-4.17 3.22-5.46 5.45l74.97 70.838.24.23 5.872-5.562z" fill="#ff80aa"/><path d="m330.97 43.375-74.73 70.788v-114.127c2.41.06 4.8.71 6.96 1.96l62.31 35.929c2.31 1.33 4.17 3.22 5.46 5.45z" fill="#ff4d88"/><path d="m256.24 86.466 14.651 41.661-14.651 44.656c-2.57 0-5.14-.66-7.44-1.99l-62.31-35.929c-4.62-2.66-7.46-7.58-7.46-12.91v-71.397c0-2.67.71-5.23 2-7.46z" fill="#ff4d88"/><path d="m332.97 50.837v71.388c0 5.33-2.84 10.25-7.46 12.91l-61.83 35.659c-2.3 1.33-4.87 1.99-7.44 1.99v-86.318l74.73-43.089c1.29 2.231 2 4.79 2 7.46z" fill="#e62e6b"/><g><path d="m256.24 259.77h-.04c-26.22 0-47.56 21.34-47.56 47.56 0 26.23 21.34 47.57 47.56 47.57h.04l21.622-38.66z" fill="#ffd480"/></g><path d="m303.77 307.33c0 26.22-21.32 47.55-47.53 47.57v-95.13c26.21.02 47.53 21.35 47.53 47.56z" fill="#ffc34d"/><g><path d="m230.74 413.53v98.47h-30v-98.47c0-8.29 6.72-15 15-15s15 6.71 15 15z" fill="#ffd480"/></g><g><path d="m311.67 413.53v98.47h-30v-98.47c0-8.29 6.71-15 15-15 8.28 0 15 6.71 15 15z" fill="#ffc34d"/></g></g></svg>