<svg id="Capa_1" enable-background="new 0 0 512.024 512.024" height="512" viewBox="0 0 512.024 512.024" width="512" xmlns="http://www.w3.org/2000/svg"><g><path d="m497.012 0h-482c-8.284 0-15 6.716-15 15v360c0 8.284 6.716 15 15 15h482c8.284 0 15-6.716 15-15v-360c0-8.284-6.716-15-15-15z" fill="#edf5ff"/><path d="m512.012 15v360c0 8.28-6.72 15-15 15h-241v-390h241c8.28 0 15 6.72 15 15z" fill="#d5e8fe"/><path d="m226.012 300h-120c-8.284 0-15 6.716-15 15s6.716 15 15 15h120c8.284 0 15-6.716 15-15s-6.716-15-15-15z" fill="#d5e8fe"/><path d="m106.012 180c-8.284 0-15 6.716-15 15s6.716 15 15 15h60.05c8.284 0 15-6.716 15-15v-60c0-8.284-6.716-15-15-15h-45v-30h45c8.284 0 15-6.716 15-15s-6.716-15-15-15h-60c-8.284 0-15 6.716-15 15v60c0 8.284 6.716 15 15 15h45v30z" fill="#393d9d"/><path d="m286.062 90c8.284 0 15-6.716 15-15s-6.716-15-15-15h-60c-8.284 0-15 6.716-15 15v60c0 8.284 6.716 15 15 15h45v30h-45.05c-8.284 0-15 6.716-15 15s6.716 15 15 15h60.05c8.284 0 15-6.716 15-15v-60c0-8.284-6.716-15-15-15h-45v-30z" fill="#393d9d"/><g fill="#182084"><path d="m286.062 90h-30.05v-30h30.05c8.28 0 15 6.72 15 15s-6.72 15-15 15z"/><path d="m301.062 135v60c0 8.28-6.72 15-15 15h-30.05v-30h15.05v-30h-15.05v-30h30.05c8.28 0 15 6.72 15 15z"/><path d="m406.062 150c-8.284 0-15 6.716-15 15v15h-30v-105c0-8.284-6.716-15-15-15s-15 6.716-15 15v120c0 8.284 6.716 15 15 15h60c8.284 0 15-6.716 15-15v-30c0-8.284-6.716-15-15-15z"/></g><path d="m226.012 240h-120c-8.284 0-15 6.716-15 15s6.716 15 15 15h120c8.284 0 15-6.716 15-15s-6.716-15-15-15z" fill="#d5e8fe"/><path d="m301.203 391.044c-.273 2.091-.081-4.781-.142 105.956 0 11.881 13.251 19.123 23.263 12.519l37.094-24.484 36.152 24.399c9.896 6.678 23.391-.395 23.391-12.434-.064-109.607.137-102.855-.148-104.996-33.538 32.35-86.565 31.957-119.61-.96z" fill="#e63950"/><path d="m420.962 497c0 12.04-13.49 19.11-23.39 12.43l-36.15-24.4v-69.03c21.38.02 42.78-7.97 59.39-24 .29 2.15.09-4.61.15 105z" fill="#cd0000"/><circle cx="361.512" cy="330.5" fill="#fdbf00" r="90.5"/><path d="m452.012 330.5c0 49.9-40.6 90.5-90.5 90.5h-.09v-181h.09c49.9 0 90.5 40.6 90.5 90.5z" fill="#ff9100"/><circle cx="361.512" cy="330.5" fill="#ffda2d" r="60.5"/><path d="m422.012 330.5c0 33.36-27.14 60.5-60.5 60.5h-.09v-121h.09c33.36 0 60.5 27.14 60.5 60.5z" fill="#fdbf00"/></g></svg>