<?xml version="1.0" encoding="iso-8859-1"?>
<!-- Generator: Adobe Illustrator 21.0.0, SVG Export Plug-In . SVG Version: 6.00 Build 0)  -->
<svg xmlns="http://www.w3.org/2000/svg" xmlns:xlink="http://www.w3.org/1999/xlink" version="1.1" id="Capa_1" x="0px" y="0px" viewBox="0 0 512 512" style="enable-background:new 0 0 512 512;" xml:space="preserve" width="512" height="512">
<g>
	<g>
		<path style="fill:#09607D;" d="M329,216.5H183c-24.813,0-45-20.187-45-45v-66c0-24.813,20.187-45,45-45h146    c24.813,0,45,20.187,45,45v66C374,196.313,353.813,216.5,329,216.5z M183,90.5c-8.271,0-15,6.729-15,15v66c0,8.271,6.729,15,15,15    h146c8.271,0,15-6.729,15-15v-66c0-8.271-6.729-15-15-15H183z"/>
	</g>
	<path style="fill:#07485E;" d="M329,60.5h-73v30h73c8.271,0,15,6.729,15,15v66c0,8.271-6.729,15-15,15h-73v30h73   c24.813,0,45-20.187,45-45v-66C374,80.687,353.813,60.5,329,60.5z"/>
	<g>
		<path style="fill:#09607D;" d="M437.011,451.5H74.989C50.182,451.5,30,431.317,30,406.511V257.564    c0-24.808,20.182-44.989,44.989-44.989h362.021c24.807,0,44.989,20.182,44.989,44.989v148.946    C482,431.317,461.818,451.5,437.011,451.5z"/>
	</g>
	<path style="fill:#07485E;" d="M437.011,212.575H256V451.5h181.011c24.807,0,44.989-20.183,44.989-44.989V257.564   C482,232.757,461.818,212.575,437.011,212.575z"/>
	<g>
		<g>
			<path style="fill:#E30058;" d="M497,268.5H15c-8.284,0-15-6.716-15-15v-79c0-8.284,6.716-15,15-15h29.185     c2.024-21.842,20.454-39,42.815-39h338c22.361,0,40.791,17.158,42.815,39H497c8.284,0,15,6.716,15,15v79     C512,261.784,505.284,268.5,497,268.5z"/>
		</g>
	</g>
	<path style="fill:#C30048;" d="M497,159.5h-29.185c-2.024-21.842-20.454-39-42.815-39H256v148h241c8.284,0,15-6.716,15-15v-79   C512,166.216,505.284,159.5,497,159.5z"/>
	<path style="fill:#FFE477;" d="M141.062,306.5h-30.125c-8.284,0-15-6.716-15-15v-60.125c0-8.284,6.716-15,15-15h30.125   c8.284,0,15,6.716,15,15V291.5C156.062,299.784,149.347,306.5,141.062,306.5z"/>
	<path style="fill:#FFD222;" d="M401.063,306.5h-30.125c-8.284,0-15-6.716-15-15v-60.125c0-8.284,6.716-15,15-15h30.125   c8.284,0,15,6.716,15,15V291.5C416.063,299.784,409.347,306.5,401.063,306.5z"/>
</g>















</svg>
