<svg id="Layer_1" enable-background="new 0 0 510.965 510.965" height="512" viewBox="0 0 510.965 510.965" width="512" xmlns="http://www.w3.org/2000/svg"><g><path d="m356.783 165.785c-.814-11.282-2.89-20.741-6.508-29.822l.01.008s-25.886-42.401-25.235-74.938c.18-8.977-6.18-12.805-14.037-8.46-3.013 1.666-6.27 3.839-9.614 6.67-4.777 4.044-12.088 2.536-14.763-3.122-8.34-17.639-12.568-35.574-14.657-47.642-1.426-8.236-8.179-10.95-14.926-6.015-48.162 35.228-54.101 79.666-51.891 107.759.94 11.942-11.07 20.661-22.156 16.125l-7.843-3.209c-5.433-2.223-11.564.967-12.849 6.695-.548 2.44-1.06 4.981-1.513 7.61-4.662 27.045-4.721 57.225 12.227 80.721.01.013.025.021.042.021h172.937c.019 0 .036-.011.045-.027 8.914-16.857 11.784-35.398 10.731-52.374z" fill="#ffb329"/><path d="m350.275 135.948.01.008s-25.886-42.401-25.235-74.938c.18-8.977-6.18-12.805-14.037-8.46-3.013 1.667-6.27 3.839-9.614 6.67-4.777 4.044-12.088 2.536-14.763-3.123-8.34-17.639-12.568-35.574-14.657-47.641-1.39-8.03-7.845-10.789-14.42-6.35v216.056h88.448c.019 0 .036-.01.045-.027 8.913-16.857 11.783-35.399 10.73-52.374-.813-11.282-2.889-20.741-6.507-29.821z" fill="#ff742d"/><path d="m334.422 290.518h-152.321l12.678 83.425 63.482 22.617 63.483-22.617z" fill="#e66b2e"/><path d="m214.124 501.238c.85 5.593 5.659 9.727 11.316 9.727h65.641c5.658 0 10.466-4.133 11.316-9.727l9.496-62.488-53.633-32.404-53.633 32.404z" fill="#e66b2e"/><g fill="#af4938"><path d="m257.559 396.31.702.25 63.483-22.617 12.678-83.425h-76.863z"/><path d="m257.559 406.771v104.194h33.522c5.658 0 10.466-4.133 11.316-9.727l9.496-62.488-53.633-32.404z"/><path d="m194.779 373.943 9.849 64.807h107.267l9.849-64.807z"/></g><path d="m257.559 438.75h54.336l9.849-64.807h-64.185z" fill="#913a28"/><g><path d="m256.88 230.519c-8.095-.357-14.321-7.352-14.321-15.455v-44.264c0-8.103 6.226-15.098 14.321-15.455 8.593-.379 15.679 6.476 15.679 14.985v45.204c0 8.509-7.086 15.364-15.679 14.985z" fill="#fff339"/></g><circle cx="104.215" cy="81.081" fill="#ffb329" r="15"/><circle cx="406.75" cy="61.829" fill="#ffd700" r="15"/><circle cx="436.75" cy="232.422" fill="#ff742d" r="15"/><circle cx="74.215" cy="226.243" fill="#ffd700" r="15"/><path d="m257.559 155.33v75.164c8.282-.003 15-6.697 15-14.98v-45.204c0-8.283-6.718-14.977-15-14.98z" fill="#ffb329"/><path d="m319.146 308.486h-121.969c-23.252 0-43.679-15.436-50.027-37.806l-14.341-50.537c-1.602-5.645 2.638-11.255 8.506-11.255h233.859c5.879 0 10.12 5.63 8.498 11.281l-14.542 50.662c-6.399 22.295-26.79 37.655-49.984 37.655z" fill="#af4938"/><path d="m375.173 208.889h-117.614v99.598h61.587c23.194 0 43.584-15.361 49.983-37.655l14.542-50.662c1.623-5.651-2.619-11.281-8.498-11.281z" fill="#913a28"/></g></svg>