<?xml version="1.0" encoding="UTF-8"?>
<svg width="50px" height="50px" viewBox="0 0 50 50" version="1.1" xmlns="http://www.w3.org/2000/svg" xmlns:xlink="http://www.w3.org/1999/xlink">
    <!-- Generator: Sketch 60.1 (88133) - https://sketch.com -->
    <title>Logos/Workspace/Calendar</title>
    <desc>Created with Sketch.</desc>
    <g id="Logos/Workspace/Calendar" stroke="none" stroke-width="1" fill="none" fill-rule="evenodd">
        <g id="Group-4" transform="translate(6.000000, 3.000000)">
            <path d="M13.2875147,1.68504728 L36.5097369,8.83034653 C37.3955415,9.10290178 38.0000001,9.92131419 38.0000001,10.8481022 L38.0000001,33.874975 C38.0000001,35.0409094 37.0548235,35.9860861 35.888889,35.9860861 C35.6784434,35.9860861 35.4691806,35.9546197 35.2680411,35.8927307 L12.0458189,28.7474319 C11.1600144,28.4748766 10.5555557,27.6564642 10.5555557,26.7296762 L10.5555557,3.70280296 C10.5555557,2.53686849 11.5007323,1.59169185 12.6666668,1.59169185 C12.8771124,1.59169185 13.0863752,1.6231582 13.2875147,1.68504728 Z" id="Rectangle-Copy-15" fill="#C2F1F9" opacity="0.503720238"/>
            <path d="M8.00973686,5.69615843 L31.2319591,12.8414577 C32.1177636,13.1140129 32.7222223,13.9324253 32.7222223,14.8592134 L32.7222223,37.8860861 C32.7222223,39.0520206 31.7770456,39.9971972 30.6111112,39.9971972 C30.4006656,39.9971972 30.1914028,39.9657309 29.9902633,39.9038418 L6.76804108,32.758543 C5.88223652,32.4859878 5.27777784,31.6675754 5.27777784,30.7407873 L5.27777784,7.71391411 C5.27777784,6.54797964 6.22295448,5.602803 7.38888895,5.602803 C7.59933455,5.602803 7.80859738,5.63426936 8.00973686,5.69615843 Z" id="Rectangle-Copy-10" fill="#8AE3F3" opacity="0.8"/>
            <path d="M2.73195902,9.70726959 L25.9541812,16.8525688 C26.8399858,17.1251241 27.4444444,17.9435365 27.4444444,18.8703245 L27.4444444,41.8971973 C27.4444444,43.0631317 26.4992678,44.0083084 25.3333333,44.0083084 C25.1228877,44.0083084 24.9136249,43.976842 24.7124855,43.914953 L1.49026324,36.7696542 C0.604458679,36.4970989 5.5758801e-16,35.6786865 0,34.7518985 L0,11.7250253 C-5.86875002e-16,10.5590908 0.945176639,9.61391416 2.11111111,9.61391416 C2.32155671,9.61391416 2.53081954,9.64538051 2.73195902,9.70726959 Z" id="Rectangle" fill="#36D0EB"/>
            <path d="M14.102519,33.3984556 L7.5217898,31.3589955 L7.5217898,30.5946611 L11.12243,26.9353157 L11.4930158,26.5276886 C11.8937702,26.0656604 12.1839405,25.6558006 12.3635324,25.2989668 C12.5944364,24.8393973 12.7098866,24.3609035 12.7098866,23.864132 C12.7098866,23.085104 12.5150643,22.4154385 12.1254139,21.8560809 C11.7357635,21.2980103 11.199401,20.9280564 10.5163102,20.7452427 C9.80916691,20.5559918 9.23792877,20.665082 8.80257865,21.071257 C8.36722853,21.4757527 8.14955673,22.0937288 8.14955673,22.9264632 L7.29088703,22.6877275 C7.29088703,22.0070523 7.42437636,21.4237301 7.69135903,20.9369135 C7.9583417,20.4489905 8.33836539,20.1109792 8.8314415,19.9228269 C9.3245176,19.7335112 9.88613489,19.7217542 10.5163102,19.8884281 C11.4784099,20.142892 12.2300391,20.6375371 12.7712201,21.3741268 C13.3124012,22.1130483 13.5829877,22.9958758 13.5829877,24.0208869 C13.5829877,24.5985174 13.4302567,25.1870349 13.12479,25.7853195 C12.8193234,26.3820873 12.2817582,27.0794905 11.5120784,27.8743999 L8.58249944,30.8453209 L14.102519,32.5388937 L14.102519,33.3984556 Z M19.7307742,35.1427306 L18.8648888,34.8743806 L18.8648888,23.5162895 L16.0074669,24.0057766 L16.0074669,23.0460329 L19.5864599,22.4175644 L19.7307742,22.4558004 L19.7307742,35.1427306 Z" id="21-copy" stroke="#FFFFFF" stroke-width="1.58333333" fill="#FFFFFF" fill-rule="nonzero" stroke-linejoin="round"/>
        </g>
    </g>
</svg>