<svg id="Capa_1" enable-background="new 0 0 512 512" height="512" viewBox="0 0 512 512" width="512" xmlns="http://www.w3.org/2000/svg"><g><path d="m74.98 74.98c-48.351 48.353-74.98 112.64-74.98 181.02s26.629 132.667 74.98 181.02c48.353 48.351 112.64 74.98 181.02 74.98l38-258-38-254c-68.38 0-132.667 26.629-181.02 74.98z" fill="#00ccb1"/><path d="m437.02 74.98c-48.353-48.351-112.64-74.98-181.02-74.98v512c68.38 0 132.667-26.629 181.02-74.98 48.351-48.353 74.98-112.64 74.98-181.02s-26.629-132.667-74.98-181.02z" fill="#00aa8e"/><path d="m83 322.1h-15v-133.1h44.333c14.905-.182 28.041 4.923 38.032 14.773 12.162 11.991 18.86 30.31 18.86 51.581 0 37.979-23.414 65.952-55.674 66.516-8.468.148-30.377.23-30.551.23zm15-103.1v73.022c5.627-.037 11.507-.087 15.029-.148 13.039-.228 26.196-11.608 26.196-36.52 0-12.986-3.616-24.001-9.923-30.218-4.288-4.229-9.712-6.207-16.657-6.139l-.212.003z" fill="#6354b1"/><path d="m392.638 322.522c-18.249 0-35.389-7.363-47.023-20.201l22.229-20.146c5.872 6.479 15.142 10.348 24.795 10.348 8.73 0 15.058-5.175 15.914-9.97 1.116-6.253-9.023-10.511-12.157-11.667-2.064-.762-4.242-1.517-6.548-2.315-8.139-2.821-17.362-6.019-25.368-10.934-12.122-7.441-18.299-20.056-16.524-33.741 1.925-14.832 13.041-27.757 27.664-32.161 29.234-8.808 53.264 11.006 54.272 11.854l-19.303 22.965.102.084c-.128-.103-12.881-10.258-26.419-6.178-3.839 1.156-6.209 4.546-6.565 7.296-.202 1.557.141 2.886 2.469 4.315 5.223 3.206 12.479 5.722 19.498 8.154 2.342.812 4.764 1.651 7.104 2.515 27.226 10.042 34.024 29.875 31.309 45.087-3.592 20.104-22.705 34.695-45.449 34.695z" fill="#463b84"/><path d="m207.553 105.656 32.903-31.884-20.877-21.544-86.097 83.428h122.518l13-11.656-13-18.344z" fill="#f8f6f6"/><path d="m256 105.656h122.518v30h-122.518z" fill="#eee"/><path d="m133.482 406.344h122.518l12-15.344-12-14.656h-122.518z" fill="#f8f6f6"/><path d="m304.447 406.344-32.903 31.884 20.877 21.544 86.097-83.428h-122.518v30z" fill="#eee"/><path d="m231.392 189.003-27.892-.006v133.003h30v-73.888l22.5 35.29 9-19.402-9-36.401z" fill="#6354b1"/><path d="m278.5 189v73.889l-22.5-35.29v55.803l24.609 38.598h27.891v-133z" fill="#463b84"/></g></svg>